<svg width="200" height="200" viewBox="0 0 200 200" fill="none" xmlns="http://www.w3.org/2000/svg">
<path fill-rule="evenodd" clip-rule="evenodd" d="M134 55C134 56.0345 133.954 57.0582 133.863 58.0691C138.168 56.0984 142.956 55 148 55C166.778 55 182 70.2223 182 89C182 105.291 170.543 118.906 155.246 122.226C160.687 128.254 164 136.24 164 145C164 163.778 148.778 179 130 179C117.012 179 105.726 171.718 100 161.014C94.2743 171.718 82.9875 179 70 179C51.2223 179 36 163.778 36 145C36 136.24 39.3127 128.254 44.7538 122.226C29.4574 118.906 18 105.291 18 89C18 70.2223 33.2223 55 52 55C57.0442 55 61.8317 56.0984 66.1366 58.0691C66.0462 57.0582 66 56.0345 66 55C66 36.2223 81.2223 21 100 21C118.778 21 134 36.2223 134 55ZM100 139C118.778 139 134 123.778 134 105C134 86.2223 118.778 71 100 71C81.2223 71 66 86.2223 66 105C66 123.778 81.2223 139 100 139Z" fill="#00E0FF"/>
</svg>
